<?xml version="1.0" standalone="no"?>
<!DOCTYPE svg PUBLIC "-//W3C//DTD SVG 20010904//EN"
 "http://www.w3.org/TR/2001/REC-SVG-20010904/DTD/svg10.dtd">
<svg version="1.0" xmlns="http://www.w3.org/2000/svg"
 width="700.000000pt" height="700.000000pt" viewBox="0 0 700.000000 700.000000"
 preserveAspectRatio="xMidYMid meet">
<metadata>
Created by potrace 1.11, written by Peter Selinger 2001-2013
</metadata>
<g transform="translate(0.000000,700.000000) scale(0.100000,-0.100000)"
fill="#000000" stroke="none">
<path d="M1181 6363 c47 -49 423 -439 835 -868 1296 -1350 1505 -1568 1579
-1643 l72 -73 179 191 c98 105 180 195 182 199 1 4 -62 75 -140 158 -79 82
-208 218 -287 302 l-143 151 309 0 310 0 246 -261 c136 -143 247 -265 247
-269 0 -5 -68 -79 -151 -165 l-152 -156 -49 56 c-27 30 -53 55 -58 55 -5 0
-90 -87 -189 -194 l-181 -194 527 -546 c289 -301 530 -545 534 -544 18 6 1430
1481 1427 1490 -2 5 -523 547 -1158 1204 l-1154 1194 -1435 0 -1436 0 86 -87z"/>
<path d="M1430 3757 c-392 -409 -712 -748 -710 -753 2 -5 523 -548 1158 -1206
l1156 -1198 1433 0 c788 0 1433 2 1433 5 0 9 -2561 2665 -2570 2665 -11 0
-362 -377 -359 -387 1 -4 128 -141 282 -303 l279 -295 -303 -3 -304 -3 -123
128 c-68 70 -181 189 -252 263 l-128 135 156 159 155 160 54 -58 55 -59 81 89
c45 49 128 138 184 199 l102 110 -63 65 c-278 288 -998 1030 -1000 1030 -1 0
-323 -334 -716 -743z"/>
</g>
</svg>
